<?xml version="1.0" encoding="UTF-8" standalone="no"?>
<!-- Created with Inkscape (http://www.inkscape.org/) -->

<svg
   width="97.744858mm"
   height="75.152824mm"
   viewBox="0 0 97.744858 75.152824"
   version="1.1"
   id="svg1"
   inkscape:version="1.3.2 (091e20e, 2023-11-25, custom)"
   sodipodi:docname="favicon_combouken_final_v1.svg"
   xmlns:inkscape="http://www.inkscape.org/namespaces/inkscape"
   xmlns:sodipodi="http://sodipodi.sourceforge.net/DTD/sodipodi-0.dtd"
   xmlns="http://www.w3.org/2000/svg"
   xmlns:svg="http://www.w3.org/2000/svg">
  <sodipodi:namedview
     id="namedview1"
     pagecolor="#ffffff"
     bordercolor="#666666"
     borderopacity="1.0"
     inkscape:showpageshadow="2"
     inkscape:pageopacity="0.0"
     inkscape:pagecheckerboard="0"
     inkscape:deskcolor="#d1d1d1"
     inkscape:document-units="mm"
     inkscape:zoom="0.73139029"
     inkscape:cx="185.2636"
     inkscape:cy="141.51131"
     inkscape:window-width="1920"
     inkscape:window-height="1017"
     inkscape:window-x="1912"
     inkscape:window-y="-8"
     inkscape:window-maximized="1"
     inkscape:current-layer="layer1" />
  <defs
     id="defs1" />
  <g
     inkscape:label="Layer 1"
     inkscape:groupmode="layer"
     id="layer1"
     transform="translate(-56.249522,-111.17856)">
    <path
       style="display:inline;fill:#e6e6e6;fill-opacity:1;stroke:none;stroke-width:0.264583px;stroke-linecap:butt;stroke-linejoin:miter;stroke-opacity:1"
       d="m 120.5591,116.34818 c -6.65106,-1.66226 -14.01346,-1.50087 -21.135762,0.41505 -3.617556,0.97313 -12.093176,3.86968 -19.06296,10.51801 0,0 3.276929,-1.27345 6.958906,-0.5334 0,0 -2.500179,2.65731 -8.748502,5.04479 2.411735,0.34728 1.951849,0.64089 1.951849,0.64089 0,0 -2.18293,2.16177 -6.459405,3.37935 3.848868,1.15945 4.290384,2.13581 4.290384,2.13581 0,0 -7.349036,0.26894 -14.240685,4.40208 3.834426,0.17357 3.655951,1.62551 3.655951,1.62551 -6.559335,4.44508 -11.519354,4.7787 -11.519354,4.7787 0,0 4.960019,0.33363 11.519354,4.77871 0,0 0.178475,1.45194 -3.655951,1.62551 6.891649,4.13314 14.240685,4.40208 14.240685,4.40208 0,0 -0.441516,0.97636 -4.290384,2.13581 4.276475,1.21758 6.459405,3.37935 6.459405,3.37935 0,0 0.459886,0.29361 -1.951849,0.64089 6.248323,2.38748 8.748502,5.04479 8.748502,5.04479 -3.681977,0.74005 -6.958906,-0.5334 -6.958906,-0.5334 6.969784,6.64833 15.445404,9.54488 19.06296,10.51801 7.122302,1.91592 14.484702,2.07731 21.135762,0.41505 13.30214,-3.32451 23.75894,-13.94354 23.75894,-32.4068 0,-18.46325 -10.4568,-29.08228 -23.75894,-32.40679 z"
       id="path8"
       sodipodi:nodetypes="sscccccccccccccccccsscs"
       inkscape:label="under_ball_v1.0_complete" />
    <path
       style="display:inline;fill:#ffffff;fill-opacity:1;stroke:none;stroke-width:0.264583px;stroke-linecap:butt;stroke-linejoin:miter;stroke-opacity:1"
       d="m 102.71268,114.09519 c 11.12316,-0.0945 13.49567,2.03983 13.49567,2.03983 0,0 -0.70523,0.38617 -3.7846,0.83526 0,0 5.77062,0.0891 11.53921,4.07939 0,0 -5.10921,-2.37185 -13.34715,1.4134 6.58093,0.88519 6.80952,2.64266 10.959,4.64442 0,0 -1.16506,0.60747 -3.93028,1.00443 6.36727,2.01883 7.07104,4.59126 5.78208,5.10685 -7.74904,3.58626 -11.96232,-3.7564 -19.76981,3.17928 4.69333,0.20027 3.68703,1.98183 10.36241,4.28826 3.2207,0.69655 3.8617,2.48999 1.49483,4.68117 1.80871,1.20534 0.73591,2.85887 -1.25419,3.38749 1.9901,0.52862 3.0629,2.18216 1.25419,3.3875 2.36687,2.19118 1.72587,3.98462 -1.49483,4.68117 -6.67538,2.30643 -5.66908,4.08799 -10.36241,4.28826 7.80749,6.93568 12.02077,-0.40698 19.76981,3.17928 1.28896,0.51559 0.58519,3.08802 -5.78208,5.10685 2.76522,0.39696 3.93028,1.00443 3.93028,1.00443 -4.14948,2.00176 -4.37807,3.75923 -10.959,4.64442 8.23794,3.78525 13.34715,1.4134 13.34715,1.4134 -5.76859,3.99029 -11.53921,4.07939 -11.53921,4.07939 3.07937,0.44909 3.7846,0.83526 3.7846,0.83526 0,0 -2.37251,2.13433 -13.49567,2.03983 20.13841,10.17705 51.98058,-7.45351 51.27001,-34.65978 0.71057,-27.20628 -31.1316,-44.83684 -51.27001,-34.65979 z"
       id="path9"
       sodipodi:nodetypes="ccccccccccccccccccccccccc"
       inkscape:label="over_ball_v1.0_complete" />
    <g
       id="g13"
       style="font-size:96px;line-height:1.25;white-space:pre;display:inline"
       transform="matrix(0.28427527,0,0,0.28427527,0.3207506,-8.068005)"
       aria-label="COMBOUKEN"
       inkscape:label="text_final">
      <path
         style="font-family:'New Amsterdam';-inkscape-font-specification:'New Amsterdam';stroke-width:3.54191"
         d="m 399.87291,662.27146 c -21.98822,0 -37.40263,-4.19364 -46.24326,-12.58089 -8.84063,-8.61395 -13.26094,-23.12163 -13.26094,-43.52308 V 497.69983 c 0,-19.94807 4.30698,-34.22909 12.92091,-42.84302 8.84062,-8.84064 24.36839,-13.26095 46.58329,-13.26095 21.98823,0 37.40264,4.42031 46.24328,13.26095 8.84062,8.84062 13.26093,23.68834 13.26093,44.54314 h -37.74267 c 0,-6.80048 -0.34002,-11.67416 -1.02007,-14.62103 -0.45336,-3.17356 -2.15348,-5.10037 -5.10036,-5.78041 -2.94687,-0.90673 -8.16058,-1.3601 -15.64111,-1.3601 -7.02716,0 -12.12752,0.34003 -15.30108,1.02007 -2.94687,0.45338 -4.76033,2.15349 -5.44037,5.10036 -0.45337,2.7202 -0.68006,7.3672 -0.68006,13.94099 v 115.94818 c 0.45337,3.85362 3.17356,6.68714 8.16058,8.50061 4.98702,1.81346 10.31406,2.72019 15.98113,2.72019 7.48052,0 12.58089,-0.79339 15.30108,-2.38016 2.94687,-1.81346 4.42031,-6.57381 4.42031,-14.28101 0,-1.81346 -0.1133,-3.74027 -0.34002,-5.78042 0,-2.26683 -0.1133,-5.2137 -0.34003,-8.84062 h 37.74267 c 0,10.88077 -0.56671,20.62812 -1.70012,29.24207 -0.90673,8.61393 -3.2869,15.86778 -7.1405,21.76153 -3.85362,5.66708 -9.74737,10.08739 -17.68126,13.26095 -7.93389,2.94687 -18.928,4.42031 -32.98233,4.42031 z"
         id="path10"
         sodipodi:nodetypes="scsssssccccsccscsscsccccccs" />
    </g>
  </g>
</svg>
